<svg viewBox="0 0 120 120" xmlns="http://www.w3.org/2000/svg">
  <ellipse cx="60" cy="108" rx="30" ry="16" fill="#3DBDB5"/>
  <circle cx="60" cy="65" r="38" fill="#4ECDC4"/>
  <ellipse cx="60" cy="38" rx="30" ry="10" fill="#2FA098"/>
  <ellipse cx="60" cy="34" rx="28" ry="9" fill="#5AE0D8"/>
  <ellipse cx="60" cy="34" rx="16" ry="7" fill="#3DBDB5"/>
  <circle cx="47" cy="58" r="8" fill="white"/><circle cx="73" cy="58" r="8" fill="white"/>
  <circle cx="49" cy="59" r="5" fill="#1A5050"/><circle cx="75" cy="59" r="5" fill="#1A5050"/>
  <circle cx="51" cy="57" r="1.5" fill="white"/><circle cx="77" cy="57" r="1.5" fill="white"/>
  <ellipse cx="60" cy="72" rx="16" ry="11" fill="#3DBDB5"/>
  <ellipse cx="60" cy="75" rx="10" ry="6" fill="#2FA098"/>
  <ellipse cx="60" cy="67" rx="5" ry="3.5" fill="#2FA098"/>
  <path d="M52 78 Q60 84 68 78" fill="none" stroke="#1A8070" stroke-width="2.5" stroke-linecap="round"/>
  <ellipse cx="38" cy="70" rx="7" ry="5" fill="rgba(50,180,160,0.4)"/>
  <ellipse cx="82" cy="70" rx="7" ry="5" fill="rgba(50,180,160,0.4)"/>
  <ellipse cx="22" cy="82" rx="14" ry="9" fill="#3DBDB5" transform="rotate(-30 22 82)"/>
  <ellipse cx="98" cy="82" rx="14" ry="9" fill="#3DBDB5" transform="rotate(30 98 82)"/>
</svg>
