<svg viewBox="0 0 120 120" xmlns="http://www.w3.org/2000/svg">
  <circle cx="60" cy="62" r="40" fill="#FFB3CF"/>
  <polygon points="24,36 38,12 44,38" fill="#FFB3CF"/><polygon points="96,36 82,12 76,38" fill="#FFB3CF"/>
  <polygon points="28,34 38,18 42,36" fill="#FF8CB8"/><polygon points="92,34 82,18 78,36" fill="#FF8CB8"/>
  <ellipse cx="60" cy="72" rx="20" ry="14" fill="#FFD6E8"/>
  <path d="M48 58 Q52 52 56 58" fill="none" stroke="#2D2A26" stroke-width="2.5" stroke-linecap="round"/>
  <path d="M64 58 Q68 52 72 58" fill="none" stroke="#2D2A26" stroke-width="2.5" stroke-linecap="round"/>
  <ellipse cx="60" cy="68" rx="4" ry="3" fill="#FF8CB8"/>
  <path d="M54 74 Q60 80 66 74" fill="none" stroke="#C06090" stroke-width="2" stroke-linecap="round"/>
  <ellipse cx="38" cy="70" rx="7" ry="5" fill="rgba(255,100,150,0.35)"/>
  <ellipse cx="82" cy="70" rx="7" ry="5" fill="rgba(255,100,150,0.35)"/>
  <line x1="38" y1="66" x2="18" y2="62" stroke="#C06090" stroke-width="1.5" stroke-linecap="round"/>
  <line x1="38" y1="69" x2="18" y2="69" stroke="#C06090" stroke-width="1.5" stroke-linecap="round"/>
  <line x1="82" y1="66" x2="102" y2="62" stroke="#C06090" stroke-width="1.5" stroke-linecap="round"/>
  <line x1="82" y1="69" x2="102" y2="69" stroke="#C06090" stroke-width="1.5" stroke-linecap="round"/>
  <path d="M38 100 Q60 116 82 100" fill="#FFB3CF" stroke="#FF8CB8" stroke-width="2"/>
</svg>
