<svg viewBox="0 0 120 120" xmlns="http://www.w3.org/2000/svg">
  <ellipse cx="60" cy="92" rx="28" ry="20" fill="#E83030"/>
  <circle cx="60" cy="58" r="40" fill="#F04040"/>
  <rect x="42" y="16" width="12" height="20" rx="6" fill="#FFD700" transform="rotate(-10 48 26)"/>
  <rect x="66" y="16" width="12" height="20" rx="6" fill="#FFD700" transform="rotate(10 72 26)"/>
  <circle cx="47" cy="52" r="9" fill="white"/><circle cx="73" cy="52" r="9" fill="white"/>
  <circle cx="49" cy="54" r="5.5" fill="#1A0808"/><circle cx="75" cy="54" r="5.5" fill="#1A0808"/>
  <circle cx="51" cy="52" r="2" fill="white"/><circle cx="77" cy="52" r="2" fill="white"/>
  <ellipse cx="60" cy="67" rx="16" ry="11" fill="#C82020"/>
  <rect x="50" y="64" width="6" height="9" rx="2" fill="white"/>
  <rect x="64" y="64" width="6" height="9" rx="2" fill="white"/>
  <path d="M48 78 Q60 86 72 78" fill="none" stroke="#A01010" stroke-width="2.5" stroke-linecap="round"/>
  <ellipse cx="36" cy="66" rx="8" ry="6" fill="rgba(255,80,80,0.45)"/>
  <ellipse cx="84" cy="66" rx="8" ry="6" fill="rgba(255,80,80,0.45)"/>
</svg>
