<svg viewBox="0 0 120 120" xmlns="http://www.w3.org/2000/svg">
  <ellipse cx="60" cy="98" rx="26" ry="16" fill="#5090E0"/>
  <ellipse cx="90" cy="80" rx="18" ry="12" fill="#5090E0" transform="rotate(30 90 80)"/>
  <ellipse cx="30" cy="80" rx="18" ry="12" fill="#5090E0" transform="rotate(-30 30 80)"/>
  <circle cx="60" cy="60" r="40" fill="#74B9FF"/>
  <ellipse cx="60" cy="38" rx="26" ry="12" fill="#5090E0"/>
  <polygon points="48,30 58,10 52,32" fill="#FFD700"/>
  <polygon points="72,30 62,10 68,32" fill="#FFD700"/>
  <circle cx="46" cy="54" r="8.5" fill="white"/><circle cx="74" cy="54" r="8.5" fill="white"/>
  <circle cx="48" cy="55" r="5.5" fill="#1830A0"/><circle cx="76" cy="55" r="5.5" fill="#1830A0"/>
  <circle cx="50" cy="53" r="2" fill="white"/><circle cx="78" cy="53" r="2" fill="white"/>
  <ellipse cx="60" cy="67" rx="5.5" ry="4" fill="#5090E0"/>
  <path d="M50 74 Q60 80 70 74" fill="none" stroke="#3060C0" stroke-width="2.5" stroke-linecap="round"/>
  <ellipse cx="38" cy="67" rx="7" ry="5" fill="rgba(80,140,220,0.45)"/>
  <ellipse cx="82" cy="67" rx="7" ry="5" fill="rgba(80,140,220,0.45)"/>
  <circle cx="44" cy="82" r="4" fill="rgba(255,220,0,0.6)" stroke="#FFD700" stroke-width="1"/>
  <circle cx="76" cy="82" r="4" fill="rgba(255,220,0,0.6)" stroke="#FFD700" stroke-width="1"/>
  <circle cx="60" cy="86" r="3" fill="rgba(255,220,0,0.6)" stroke="#FFD700" stroke-width="1"/>
</svg>
