<svg viewBox="0 0 120 120" xmlns="http://www.w3.org/2000/svg">
  <ellipse cx="60" cy="90" rx="26" ry="20" fill="#8B6236"/>
  <circle cx="60" cy="56" r="38" fill="#8B6236"/>
  <ellipse cx="60" cy="66" rx="22" ry="16" fill="#D4A878"/>
  <circle cx="30" cy="28" r="14" fill="#8B6236"/><circle cx="90" cy="28" r="14" fill="#8B6236"/>
  <circle cx="30" cy="28" r="8" fill="#D4A878"/><circle cx="90" cy="28" r="8" fill="#D4A878"/>
  <circle cx="47" cy="50" r="8" fill="white"/><circle cx="73" cy="50" r="8" fill="white"/>
  <circle cx="49" cy="51" r="5" fill="#1A1410"/><circle cx="75" cy="51" r="5" fill="#1A1410"/>
  <circle cx="51" cy="49" r="1.5" fill="white"/><circle cx="77" cy="49" r="1.5" fill="white"/>
  <ellipse cx="60" cy="64" rx="5" ry="3.5" fill="#5A3A1A"/>
  <path d="M54 70 Q60 76 66 70" fill="none" stroke="#5A3A1A" stroke-width="2.5" stroke-linecap="round"/>
  <ellipse cx="38" cy="63" rx="7" ry="5" fill="rgba(255,140,80,0.4)"/>
  <ellipse cx="82" cy="63" rx="7" ry="5" fill="rgba(255,140,80,0.4)"/>
  <ellipse cx="60" cy="108" rx="20" ry="14" fill="#D4A878"/>
</svg>
