<svg viewBox="0 0 120 120" xmlns="http://www.w3.org/2000/svg">
  <ellipse cx="38" cy="30" rx="11" ry="28" fill="#C4B0E8" transform="rotate(-8 38 30)"/>
  <ellipse cx="82" cy="30" rx="11" ry="28" fill="#C4B0E8" transform="rotate(8 82 30)"/>
  <ellipse cx="38" cy="30" rx="6" ry="20" fill="#F0D0F0" transform="rotate(-8 38 30)"/>
  <ellipse cx="82" cy="30" rx="6" ry="20" fill="#F0D0F0" transform="rotate(8 82 30)"/>
  <circle cx="60" cy="68" r="40" fill="#D4C0F0"/>
  <ellipse cx="60" cy="78" rx="20" ry="14" fill="#F0E4FF"/>
  <circle cx="47" cy="62" r="8" fill="white"/><circle cx="73" cy="62" r="8" fill="white"/>
  <circle cx="49" cy="63" r="5" fill="#6C50C0"/><circle cx="75" cy="63" r="5" fill="#6C50C0"/>
  <circle cx="51" cy="61" r="1.5" fill="white"/><circle cx="77" cy="61" r="1.5" fill="white"/>
  <ellipse cx="60" cy="76" rx="4.5" ry="3" fill="#E090C0"/>
  <path d="M54 82 Q60 87 66 82" fill="none" stroke="#A060C0" stroke-width="2" stroke-linecap="round"/>
  <ellipse cx="39" cy="76" rx="7" ry="5" fill="rgba(200,100,200,0.35)"/>
  <ellipse cx="81" cy="76" rx="7" ry="5" fill="rgba(200,100,200,0.35)"/>
  <circle cx="60" cy="108" r="10" fill="#C4B0E8"/>
</svg>
